<?xml version="1.0" encoding="UTF-8"?>
<svg version="1.1" xmlns="http://www.w3.org/2000/svg" width="904" height="316">
<path d="M0 0 C298.32 0 596.64 0 904 0 C904 104.28 904 208.56 904 316 C605.68 316 307.36 316 0 316 C0 211.72 0 107.44 0 0 Z " fill="#000000" transform="translate(0,0)"/>
<path d="M0 0 C37.62 0 75.24 0 114 0 C121 36 121 36 123 50 C123.96236932 54.30130585 124.9586931 58.55035512 126.0625 62.8125 C126.33126953 63.88564453 126.60003906 64.95878906 126.87695312 66.06445312 C127.72814239 70.88995495 127.72814239 70.88995495 130 75 C130.35208981 76.49120388 130.65625472 77.99382692 130.9375 79.5 C131.86825815 84.35673803 132.91080203 89.176409 134 94 C134.66 94 135.32 94 136 94 C136.26554688 94.83144531 136.53109375 95.66289062 136.8046875 96.51953125 C137.33449219 98.14955078 137.33449219 98.14955078 137.875 99.8125 C138.39707031 101.43091797 138.39707031 101.43091797 138.9296875 103.08203125 C139.91959653 106.13315802 139.91959653 106.13315802 142 109 C142 110.32 142 111.64 142 113 C142.66 113 143.32 113 144 113 C145.4375 114.86328125 145.4375 114.86328125 147 117.3125 C147.7734375 118.51326172 147.7734375 118.51326172 148.5625 119.73828125 C149.036875 120.48464844 149.51125 121.23101562 150 122 C150.99 123.485 150.99 123.485 152 125 C141.0728862 125.09288871 130.14586713 125.16386066 119.21843815 125.20724869 C114.14377406 125.22807817 109.06938112 125.25631079 103.99487305 125.30175781 C99.09301036 125.34538136 94.19140767 125.36917197 89.28936577 125.37950897 C87.42394356 125.38687078 85.55853477 125.40124651 83.69322395 125.42292023 C65.07890343 125.6305052 65.07890343 125.6305052 58 121 C57.11570312 120.49339844 56.23140625 119.98679687 55.3203125 119.46484375 C33.9172133 104.57407544 21.48259855 82.10999575 13 58 C12.54125675 56.71712853 12.08164126 55.43456859 11.62109375 54.15234375 C10.80110657 51.86372282 9.98533113 49.57358368 9.17578125 47.28125 C8.55815325 45.55763697 7.93320174 43.83562494 7.24389648 42.1394043 C5.21531387 37.08203948 4.20018505 32.19642464 3.4375 26.8125 C3.21252976 25.25570592 2.98220127 23.69967519 2.74609375 22.14453125 C2.64997803 21.46753174 2.5538623 20.79053223 2.45483398 20.09301758 C1.94198479 17.45438828 1.94198479 17.45438828 0 13 C0 8.71 0 4.42 0 0 Z " fill="#9B1A22" transform="translate(293,50)"/>
<path d="M0 0 C0.716185 -0.0049649 1.43237 -0.00992981 2.17025757 -0.01504517 C4.52993752 -0.0295993 6.88955019 -0.0364585 9.24926758 -0.04199219 C10.46483054 -0.04623325 10.46483054 -0.04623325 11.70495033 -0.05056 C15.99584909 -0.0655277 20.28671445 -0.07477162 24.57763672 -0.07910156 C28.98778998 -0.08457372 33.39763257 -0.108582 37.80768871 -0.13707352 C41.21799073 -0.15579532 44.62821945 -0.16091061 48.0385685 -0.16243744 C49.66310634 -0.16544445 51.28764349 -0.17340621 52.91213036 -0.18662262 C71.45651333 -0.3266919 71.45651333 -0.3266919 77.70629883 3.16113281 C78.20129883 4.64613281 78.20129883 4.64613281 78.70629883 6.16113281 C79.59317383 6.22300781 80.48004883 6.28488281 81.39379883 6.34863281 C85.61221791 7.38333938 86.81936756 8.93051925 89.70629883 12.16113281 C91.03284688 13.50121707 92.36670876 14.83408572 93.70629883 16.16113281 C96.70629883 19.16113281 99.70629883 22.16113281 102.70629883 25.16113281 C103.24254883 25.61488281 103.77879883 26.06863281 104.33129883 26.53613281 C105.70629883 28.16113281 105.70629883 28.16113281 107.14379883 31.59863281 C108.41472126 35.10855299 108.41472126 35.10855299 110.58129883 36.97363281 C118.53397631 45.16021258 121.82969668 59.22219359 125.26879883 69.84863281 C127.52963689 76.93842289 127.52963689 76.93842289 130.32739258 83.82519531 C131.8486638 87.50555118 132.55030473 90.92438242 133.20629883 94.84863281 C134.21464049 100.71670598 135.47072781 106.40242505 137.15551758 112.12207031 C137.93128941 116.4025702 137.70629883 120.81090279 137.70629883 125.16113281 C100.08629883 125.16113281 62.46629883 125.16113281 23.70629883 125.16113281 C22.38629883 117.24113281 21.06629883 109.32113281 19.70629883 101.16113281 C18.71629883 98.19113281 18.71629883 98.19113281 17.70629883 95.16113281 C17.19664337 93.04846419 16.71882213 90.92792724 16.26879883 88.80175781 C15.88594727 87.00351563 15.88594727 87.00351563 15.49536133 85.16894531 C15.2349707 83.92886719 14.97458008 82.68878906 14.70629883 81.41113281 C14.31571289 79.57421875 14.31571289 79.57421875 13.91723633 77.70019531 C12.79786074 72.41990845 11.69529912 67.13814296 10.65942383 61.84082031 C7.29712341 44.93246182 2.14422227 28.81163794 -5.48120117 13.34863281 C-5.81418213 12.67227783 -6.14716309 11.99592285 -6.49023438 11.29907227 C-8.1121353 8.11437461 -9.68215749 5.59480046 -12.29370117 3.16113281 C-12.29370117 2.50113281 -12.29370117 1.84113281 -12.29370117 1.16113281 C-8.15125945 0.16829499 -4.25394322 0.02249701 0 0 Z " fill="#9B1A22" transform="translate(476.293701171875,49.8388671875)"/>
<path d="M0 0 C2.62935015 2.02835583 4.87067645 4.31127071 7.1875 6.6875 C7.87714844 7.10386719 8.56679688 7.52023438 9.27734375 7.94921875 C12.68953166 11.05437953 12.14596993 15.1317318 12.35546875 19.51171875 C12.13641358 23.65338968 11.07045767 25.72662456 8.1875 28.6875 C4.7875 31.6875 4.7875 31.6875 2.1875 31.6875 C2.1875 32.3475 2.1875 33.0075 2.1875 33.6875 C1.0072974 34.34657418 -0.18220734 34.9889948 -1.375 35.625 C-2.03628906 35.98464844 -2.69757812 36.34429687 -3.37890625 36.71484375 C-14.41848065 41.12712951 -31.98648433 40.2065265 -42.8125 35.6875 C-48.53616549 32.82566726 -52.7954161 28.31024728 -55.8125 22.6875 C-57.03134735 17.81211061 -56.97573213 13.74604782 -54.47265625 9.31640625 C-50.85635998 4.84728728 -47.28064392 2.37000582 -41.8125 0.6875 C-40.8225 0.6875 -39.8325 0.6875 -38.8125 0.6875 C-38.8125 0.0275 -38.8125 -0.6325 -38.8125 -1.3125 C-26.96246932 -4.75978165 -11.37026715 -5.30612467 0 0 Z " fill="#D82834" transform="translate(551.8125,60.3125)"/>
<path d="M0 0 C0 0.66 0 1.32 0 2 C0.70125 2.185625 1.4025 2.37125 2.125 2.5625 C6.17992672 4.58996336 8.88225779 6.94990715 11 11 C11.48577034 14.72590856 11.36451561 18.26709011 11 22 C10.34 22 9.68 22 9 22 C8.835 22.70125 8.67 23.4025 8.5 24.125 C5.47583073 29.92132443 -0.15553554 32.93460446 -6.0625 35.375 C-12.24054526 37.25768216 -18.34006486 37.42398685 -24.75 37.5 C-26.22351929 37.52779541 -26.22351929 37.52779541 -27.72680664 37.55615234 C-33.39145805 37.50721574 -37.47940158 36.81007505 -42.39526367 33.93066406 C-44.0882164 32.86359843 -44.0882164 32.86359843 -46.5625 32.25 C-51.00337007 29.97263074 -54.77068925 25.4586215 -57 21 C-57.40710961 16.57659747 -57.5497061 12.42276872 -55.9375 8.25 C-53.27397743 5.15687701 -50.47672974 2.1757599 -47 0 C-45.68 0 -44.36 0 -43 0 C-43 -0.66 -43 -1.32 -43 -2 C-28.64290517 -5.61347106 -13.77993278 -5.54166058 0 0 Z " fill="#D92834" transform="translate(400,131)"/>
<path d="M0 0 C4.29 0 8.58 0 13 0 C13.886875 1.65 14.77375 3.3 15.6875 5 C18.00477513 9.26576776 20.44041767 13.39258144 23.1171875 17.44140625 C24 19 24 19 24 21 C27.23182023 18.2529528 29.00180321 14.66586478 31 11 C33.0564741 7.22722045 34.91976786 4.08023214 38 1 C41.96 1 45.92 1 50 1 C50 17.17 50 33.34 50 50 C46.04 50 42.08 50 38 50 C37.505 37.625 37.505 37.625 37 25 C35.700625 27.0625 34.40125 29.125 33.0625 31.25 C32.65394775 31.89227539 32.24539551 32.53455078 31.82446289 33.19628906 C30.03170356 36.07653324 28.52686248 38.62138982 28 42 C26.35 42 24.7 42 23 42 C22.60167969 41.26394531 22.20335937 40.52789062 21.79296875 39.76953125 C21.26316406 38.79371094 20.73335937 37.81789063 20.1875 36.8125 C19.66542969 35.84957031 19.14335938 34.88664062 18.60546875 33.89453125 C17.54958794 31.99086293 16.44859359 30.11141174 15.30078125 28.26171875 C14 26 14 26 14 24 C13.34 24 12.68 24 12 24 C12 32.91 12 41.82 12 51 C8.04 51 4.08 51 0 51 C0 34.17 0 17.34 0 0 Z " fill="#981B21" transform="translate(819,248)"/>
<path d="M0 0 C6.001875 -0.0928125 6.001875 -0.0928125 12.125 -0.1875 C13.37555176 -0.21481201 14.62610352 -0.24212402 15.91455078 -0.27026367 C26.24820023 -0.34767864 26.24820023 -0.34767864 31 3 C36.51208392 9.10798488 36.06474948 13.15459537 35.9375 21.203125 C35.99359506 24.61089987 36.37502179 27.66056421 37 31 C37.85808749 38.35503561 37.85808749 38.35503561 36.05859375 41.8046875 C33.50195997 45.02652693 30.64850552 47.18604821 27 49 C23.95385742 49.34057617 23.95385742 49.34057617 20.60546875 49.29296875 C19.52160889 49.28547607 18.43774902 49.2779834 17.32104492 49.27026367 C15.9569751 49.24295166 14.59290527 49.21563965 13.1875 49.1875 C8.835625 49.125625 4.48375 49.06375 0 49 C0 32.83 0 16.66 0 0 Z " fill="#981C21" transform="translate(184,249)"/>
<path d="M0 0 C16.17 0 32.34 0 49 0 C49 7.89115646 49 7.89115646 48.08203125 11.8203125 C47.88182373 12.67987549 47.68161621 13.53943848 47.4753418 14.42504883 C47.256604 15.31603271 47.03786621 16.2070166 46.8125 17.125 C46.59053955 18.04627686 46.3685791 18.96755371 46.13989258 19.91674805 C44.32492268 27.20788723 42.00650419 34.10423082 39 41 C38.34 41 37.68 41 37 41 C36.7525 41.598125 36.505 42.19625 36.25 42.8125 C34.7457326 45.44496795 33.67492092 46.5540968 31 48 C27.12559438 48.49310617 24.86755583 48.48667766 21.4375 46.5625 C13 37.69230769 13 37.69230769 13 33 C12.34 33 11.68 33 11 33 C3 13.76595745 3 13.76595745 3 8 C2.34 8 1.68 8 1 8 C0.67 5.36 0.34 2.72 0 0 Z " fill="#5C0F15" transform="translate(429,127)"/>
<path d="M0 0 C2.5625 1.9375 2.5625 1.9375 5 5 C5.61359375 5.72445312 6.2271875 6.44890625 6.859375 7.1953125 C12 13.42575 12 13.42575 12 18 C12.66 18 13.32 18 14 18 C14 19.32 14 20.64 14 22 C14.66 22 15.32 22 16 22 C16.17015625 22.65484375 16.3403125 23.3096875 16.515625 23.984375 C18.17754315 30.24308804 20.08400297 36.35895976 22.23046875 42.46875 C23 45 23 45 23 48 C7.16 48 -8.68 48 -25 48 C-25 36.74330869 -25 36.74330869 -23.35546875 31.546875 C-23.00806641 30.433125 -22.66066406 29.319375 -22.30273438 28.171875 C-21.93470703 27.04265625 -21.56667969 25.9134375 -21.1875 24.75 C-20.83107422 23.6053125 -20.47464844 22.460625 -20.10742188 21.28125 C-12.66362219 -2.21110864 -12.66362219 -2.21110864 0 0 Z " fill="#5D0F15" transform="translate(454,50)"/>
<path d="M0 0 C12 0 12 0 14.96484375 2.78125 C16.00976562 4.5859375 16.00976562 4.5859375 16.9375 6.5 C17.27072266 7.10070312 17.60394531 7.70140625 17.94726562 8.3203125 C18.98922254 10.20023476 19.99424851 12.10046167 21 14 C22.65 16.64 24.3 19.28 26 22 C26.33 14.74 26.66 7.48 27 0 C30.96 0 34.92 0 39 0 C39 16.17 39 32.34 39 49 C29 49 29 49 26.80859375 47.0859375 C26.12990234 45.74402344 26.12990234 45.74402344 25.4375 44.375 C24.89867187 43.38628906 24.35984375 42.39757812 23.8046875 41.37890625 C23.20914062 40.26386719 22.61359375 39.14882813 22 38 C20.39855806 35.40817507 18.72961159 32.86239431 17.0625 30.3125 C15.0515625 27.1878125 15.0515625 27.1878125 13 24 C12.67 32.25 12.34 40.5 12 49 C8.04 49 4.08 49 0 49 C0 32.83 0 16.66 0 0 Z " fill="#971B21" transform="translate(404,249)"/>
<path d="M0 0 C1.89201582 1.31957882 3.42612859 2.69562651 4.98828125 4.38671875 C3.61731627 8.4996137 1.51227758 9.94702898 -2.01171875 12.38671875 C-5.61552052 12.30290941 -6.97547154 11.41088356 -10.01171875 9.38671875 C-14.41584425 8.66767785 -18.94915551 8.37338981 -23.03125 10.37890625 C-26.5457326 13.40597886 -27.39440834 16.20136967 -27.88671875 20.76171875 C-27.95489229 22.30244085 -28.00562303 23.84450117 -28.01171875 25.38671875 C-27.35171875 25.38671875 -26.69171875 25.38671875 -26.01171875 25.38671875 C-24.66840221 27.38002717 -23.33577863 29.38056741 -22.01171875 31.38671875 C-17.96569936 34.08406501 -14.75748111 33.81890727 -10.01171875 33.38671875 C-7.08091201 32.52018461 -7.08091201 32.52018461 -5.01171875 31.38671875 C-5.01171875 30.72671875 -5.01171875 30.06671875 -5.01171875 29.38671875 C-8.64171875 29.38671875 -12.27171875 29.38671875 -16.01171875 29.38671875 C-16.01171875 25.75671875 -16.01171875 22.12671875 -16.01171875 18.38671875 C-7.43171875 18.38671875 1.14828125 18.38671875 9.98828125 18.38671875 C9.98828125 31.15115293 9.98828125 31.15115293 4.98828125 37.38671875 C-2.14357653 44.14457314 -8.17282479 46.90844068 -18.01171875 46.69140625 C-24.50234942 46.03220157 -28.44110417 43.27693544 -32.82421875 38.57421875 C-39.32212303 30.4592561 -39.87416215 23.67530409 -39.01171875 13.38671875 C-37.82882196 7.34435409 -33.65370014 3.15285459 -29.01171875 -0.61328125 C-20.18043978 -6.20041692 -8.82859962 -4.94104819 0 0 Z " fill="#971B21" transform="translate(501.01171875,252.61328125)"/>
<path d="M0 0 C4.29 0 8.58 0 13 0 C13.33 4.95 13.66 9.9 14 15 C15.03833984 13.37578125 15.03833984 13.37578125 16.09765625 11.71875 C23.55086636 0.85271344 23.55086636 0.85271344 28.04052734 -0.71044922 C32.43689384 -1.3095348 36.64306267 -0.80353352 41 0 C38.62722316 4.17389458 35.8777616 7.90838648 32.9375 11.6875 C32.49083984 12.26822266 32.04417969 12.84894531 31.58398438 13.44726562 C29.80771933 15.74393119 28.05516356 17.94483644 26 20 C26.34417029 23.45813539 28.00717024 25.67622699 30.0546875 28.40625 C30.66957031 29.23253906 31.28445312 30.05882812 31.91796875 30.91015625 C32.88669922 32.19212891 32.88669922 32.19212891 33.875 33.5 C34.51308594 34.35464844 35.15117188 35.20929688 35.80859375 36.08984375 C39.21387393 40.65407501 39.21387393 40.65407501 42.70751953 45.15039062 C44 47 44 47 44 49 C39.19836604 49.60694811 34.78146641 49.84832469 30 49 C26.45346094 46.17031458 24.3601681 42.83107856 22 39 C20.08314356 36.19880589 20.08314356 36.19880589 18 34 C17.01 34 16.02 34 15 34 C13.5192152 36.9615696 13.64685963 39.83506295 13.4375 43.125 C13.35371094 44.40632813 13.26992187 45.68765625 13.18359375 47.0078125 C13.12300781 47.99523437 13.06242187 48.98265625 13 50 C11.02090602 50.02686553 9.04171029 50.04633375 7.0625 50.0625 C5.96035156 50.07410156 4.85820313 50.08570313 3.72265625 50.09765625 C1 50 1 50 0 49 C-0.09319449 47.4651703 -0.117458 45.92607918 -0.11352539 44.38842773 C-0.11344986 43.40748642 -0.11337433 42.4265451 -0.11329651 41.4158783 C-0.10813522 40.3492244 -0.10297394 39.2825705 -0.09765625 38.18359375 C-0.0962413 37.0974025 -0.09482635 36.01121124 -0.09336853 34.8921051 C-0.08775048 31.40720925 -0.07519492 27.92237658 -0.0625 24.4375 C-0.05748733 22.08138113 -0.05292402 19.72526126 -0.04882812 17.36914062 C-0.03777518 11.57940257 -0.02049846 5.78971201 0 0 Z " fill="#971C21" transform="translate(91,249)"/>
<path d="M0 0 C3.73792227 2.49194818 4.15292799 4.33407478 5.6875 8.5 C6.12449219 9.6653125 6.56148438 10.830625 7.01171875 12.03125 C8 15 8 15 8 17 C8.66 17 9.32 17 10 17 C10.53367187 17.99257812 11.06734375 18.98515625 11.6171875 20.0078125 C16.80598282 29.52138975 22.50679348 38.33145998 29 47 C29.55945313 47.78503906 30.11890625 48.57007813 30.6953125 49.37890625 C38.64114989 60.2195839 51.14247431 75.28596847 65 78 C65 78.66 65 79.32 65 80 C67.54348425 80.13593443 70.07961496 80.23448907 72.625 80.3125 C73.33785156 80.35439453 74.05070312 80.39628906 74.78515625 80.43945312 C78.83351196 80.53230532 81.26404313 80.20712546 84.4609375 77.60546875 C86.98893669 75.27542389 86.98893669 75.27542389 88 73 C88.66 73 89.32 73 90 73 C90.99 68.38 91.98 63.76 93 59 C96.96 59 100.92 59 105 59 C104.5854324 71.02246034 101.38506975 78.42807632 93 87 C87.19065836 92.26471586 80.16355537 92.50522391 72.66015625 92.37109375 C57.59914214 90.84409659 44.74342594 79.37749491 35.45898438 68.13378906 C17 45.21731786 17 45.21731786 17 39 C16.34 39 15.68 39 15 39 C14.34 36.36 13.68 33.72 13 31 C12.34 31 11.68 31 11 31 C10.1605118 28.89828133 9.32860344 26.79353375 8.5 24.6875 C8.0359375 23.51574219 7.571875 22.34398437 7.09375 21.13671875 C6 18 6 18 6 15 C5.34 15 4.68 15 4 15 C3.32532438 13.25307205 2.66055844 11.50231475 2 9.75 C1.62875 8.77546875 1.2575 7.8009375 0.875 6.796875 C0 4 0 4 0 0 Z " fill="#580E14" transform="translate(292,121)"/>
<path d="M0 0 C9.9 0 19.8 0 30 0 C30 3.96 30 7.92 30 12 C24.06 12 18.12 12 12 12 C12 13.98 12 15.96 12 18 C17.61 18 23.22 18 29 18 C29 21.96 29 25.92 29 30 C23.39 30 17.78 30 12 30 C12 32.64 12 35.28 12 38 C18.27 38 24.54 38 31 38 C31 41.63 31 45.26 31 49 C20.77 49 10.54 49 0 49 C0 32.83 0 16.66 0 0 Z " fill="#951B21" transform="translate(769,249)"/>
<path d="M0 0 C0 0.66 0 1.32 0 2 C0.73476563 2.26296875 1.46953125 2.5259375 2.2265625 2.796875 C6.73202854 4.75135886 10.21903486 7.91242985 14 11 C14.60070312 11.4640625 15.20140625 11.928125 15.8203125 12.40625 C25.45777034 20.11621627 34.43141498 31.64925905 39.12939453 43.0546875 C41.16300749 47.5986662 43.82269165 51.85626245 46.328125 56.15234375 C48.90361825 60.67497195 50.86318146 65.04332829 52.35473633 70.03466797 C53.03151707 72.27390533 53.03151707 72.27390533 54.6875 75.25 C56.05830635 78.12216569 56.27662009 79.86497235 56 83 C52.67829507 80.31100077 51.49641669 76.91918656 50 73 C50 72.34 50 71.68 50 71 C49.34 71 48.68 71 48 71 C46.37890625 68.62109375 46.37890625 68.62109375 44.5625 65.4375 C43.66724609 63.88869141 43.66724609 63.88869141 42.75390625 62.30859375 C41 59 41 59 39.5546875 55.51171875 C37.91878849 51.81655994 35.92494705 48.62852902 33.5625 45.375 C33.13001953 44.77671387 32.69753906 44.17842773 32.25195312 43.56201172 C23.23434945 31.353613 12.73152514 20.62417744 -0.50390625 13.0078125 C-2 12 -2 12 -3 10 C-5.3140622 9.26924352 -7.64828869 8.59861742 -10 8 C-10 7.34 -10 6.68 -10 6 C-19.13703662 6.0781193 -19.13703662 6.0781193 -27.46875 9.296875 C-31.99639988 14.33273048 -34.38276088 21.53104351 -36 28 C-39.63 28 -43.26 28 -47 28 C-46.19362295 17.83964922 -43.97614084 7.01733646 -36 0 C-23.94931064 -5.96095168 -12.04640703 -5.40760556 0 0 Z " fill="#5A0F14" transform="translate(557,17)"/>
<path d="M0 0 C3.65347379 1.68154339 6.53457311 3.55844048 8.42578125 7.22265625 C8.42578125 8.21265625 8.42578125 9.20265625 8.42578125 10.22265625 C6.81640625 11.6796875 6.81640625 11.6796875 4.67578125 13.03515625 C3.9796875 13.49535156 3.28359375 13.95554687 2.56640625 14.4296875 C0.42578125 15.22265625 0.42578125 15.22265625 -1.77734375 14.421875 C-3.57421875 13.22265625 -3.57421875 13.22265625 -4.57421875 12.22265625 C-5.92168959 11.99190543 -7.2779944 11.81112562 -8.63671875 11.66015625 C-9.93609375 11.51578125 -11.23546875 11.37140625 -12.57421875 11.22265625 C-11.98609986 13.68267968 -11.98609986 13.68267968 -10.57421875 16.22265625 C-7.94626558 17.76577032 -7.94626558 17.76577032 -4.82421875 18.78515625 C1.44883464 21.18920066 6.74532542 23.31098924 10.42578125 29.22265625 C11.39615016 34.57585808 11.17158702 38.94080258 8.42578125 43.66015625 C2.2262705 48.95557168 -2.79260052 50.90591162 -11.03515625 50.53125 C-18.50372072 49.62353216 -22.11841213 44.77264023 -26.57421875 39.22265625 C-24.87660137 35.45363418 -23.35972688 34.02527917 -19.57421875 32.22265625 C-18.25421875 32.22265625 -16.93421875 32.22265625 -15.57421875 32.22265625 C-14.91421875 33.87265625 -14.25421875 35.52265625 -13.57421875 37.22265625 C-12.13682362 37.24977691 -10.69928012 37.26910692 -9.26171875 37.28515625 C-8.46121094 37.29675781 -7.66070313 37.30835938 -6.8359375 37.3203125 C-4.40560541 37.3192348 -4.40560541 37.3192348 -1.57421875 36.22265625 C-1.5618844 34.26436394 -1.5618844 34.26436394 -2.57421875 32.22265625 C-5.53915987 30.87792124 -5.53915987 30.87792124 -9.13671875 29.91015625 C-21.29798175 25.89306645 -21.29798175 25.89306645 -24.57421875 20.22265625 C-25.88646064 14.47990694 -26.09589832 9.05892291 -23.25390625 3.76171875 C-17.1983838 -2.66080506 -8.01529985 -2.42040162 0 0 Z " fill="#941B21" transform="translate(585.57421875,249.77734375)"/>
<path d="M0 0 C2.89394254 2.04693496 5.26462645 4.10911935 7.5625 6.8125 C7.5625 7.8025 7.5625 8.7925 7.5625 9.8125 C5.5825 10.4725 3.6025 11.1325 1.5625 11.8125 C1.5625 12.4725 1.5625 13.1325 1.5625 13.8125 C-0.25 14.5 -0.25 14.5 -2.4375 14.8125 C-2.85 14.35875 -3.2625 13.905 -3.6875 13.4375 C-6.51673863 10.81034984 -9.65900778 11.12221248 -13.4375 10.8125 C-13.00064037 13.25895013 -13.00064037 13.25895013 -11.4375 15.8125 C-8.80622135 17.1646443 -6.38109947 18.24131177 -3.625 19.25 C2.36439131 21.44520677 6.05927208 23.32592708 9.5625 28.8125 C10.05078125 31.8046875 10.05078125 31.8046875 9.875 34.6875 C9.82988281 35.65429688 9.78476563 36.62109375 9.73828125 37.6171875 C9.68027344 38.34164062 9.62226562 39.06609375 9.5625 39.8125 C8.9025 39.8125 8.2425 39.8125 7.5625 39.8125 C7.35625 40.555 7.15 41.2975 6.9375 42.0625 C5.14565834 45.64618332 3.00138682 46.84742182 -0.4375 48.8125 C-6.41874663 50.80624888 -13.11184022 50.81158576 -18.875 48.125 C-22.19143172 46.18017893 -24.5597239 44.24148244 -26.4375 40.8125 C-26.5 37.6875 -26.5 37.6875 -25.4375 34.8125 C-22.14424025 32.1422894 -20.75608974 31.8125 -16.4375 31.8125 C-16.004375 32.7715625 -16.004375 32.7715625 -15.5625 33.75 C-14.60926549 35.96456079 -14.60926549 35.96456079 -12.4375 36.8125 C-8.76420036 36.94607453 -5.93897041 36.9796568 -2.4375 35.8125 C-2.67493852 33.8469386 -2.67493852 33.8469386 -3.4375 31.8125 C-6.0436115 30.64926986 -8.48119041 29.72548638 -11.1875 28.875 C-16.85958322 27.08462121 -20.42479321 25.46080729 -24.4375 20.8125 C-24.7675 20.4825 -25.0975 20.1525 -25.4375 19.8125 C-25.56351135 18.0659241 -25.61329494 16.3135766 -25.625 14.5625 C-25.63917969 13.60859375 -25.65335938 12.6546875 -25.66796875 11.671875 C-25.33405147 7.52903685 -24.21592657 4.74661188 -21.5625 1.5625 C-16.0381007 -2.9870053 -6.39414459 -2.20888631 0 0 Z " fill="#941B20" transform="translate(63.4375,250.1875)"/>
<path d="M0 0 C2.03845145 1.49690796 3.39535905 2.89076402 4.55859375 5.14453125 C4.55859375 6.13453125 4.55859375 7.12453125 4.55859375 8.14453125 C2.94921875 9.6015625 2.94921875 9.6015625 0.80859375 10.95703125 C0.1125 11.41722656 -0.58359375 11.87742187 -1.30078125 12.3515625 C-3.44140625 13.14453125 -3.44140625 13.14453125 -5.64453125 12.34375 C-7.44140625 11.14453125 -7.44140625 11.14453125 -8.44140625 10.14453125 C-9.78887709 9.91378043 -11.1451819 9.73300062 -12.50390625 9.58203125 C-13.80328125 9.43765625 -15.10265625 9.29328125 -16.44140625 9.14453125 C-15.84517782 11.60874589 -15.84517782 11.60874589 -14.44140625 14.14453125 C-11.87808706 15.61710363 -11.87808706 15.61710363 -8.81640625 16.58203125 C-3.17838293 18.72597273 3.70413402 21.43561179 6.55859375 27.14453125 C7.44038954 33.21632514 6.51677416 37.47072546 2.98828125 42.484375 C-0.48488419 46.5174223 -4.60183719 47.84995011 -9.73828125 48.3828125 C-17.65904926 48.62245357 -22.36554217 46.59266797 -28.50390625 41.70703125 C-30.44140625 39.14453125 -30.44140625 39.14453125 -30.62890625 36.58203125 C-28.94091198 33.11720091 -26.80582779 31.92569559 -23.44140625 30.14453125 C-22.12140625 30.14453125 -20.80140625 30.14453125 -19.44140625 30.14453125 C-19.00828125 31.10359375 -19.00828125 31.10359375 -18.56640625 32.08203125 C-17.61317174 34.29659204 -17.61317174 34.29659204 -15.44140625 35.14453125 C-11.76810661 35.27810578 -8.94287666 35.31168805 -5.44140625 34.14453125 C-5.67851732 32.17741569 -5.67851732 32.17741569 -6.44140625 30.14453125 C-9.71725617 28.71602135 -12.95166234 27.64635989 -16.36328125 26.609375 C-21.73506806 24.82207093 -24.22825332 22.84162121 -27.44140625 18.14453125 C-29.10957238 13.14003286 -29.33930295 8.1113526 -27.12890625 3.26953125 C-20.5953418 -4.95792028 -8.96455841 -5.27436596 0 0 Z " fill="#941B20" transform="translate(696.44140625,251.85546875)"/>
<path d="M0 0 C4.29 0 8.58 0 13 0 C13.66 1.65 14.32 3.3 15 5 C15.97922739 6.0203498 16.97911922 7.02132618 18 8 C19.16796875 10.04296875 19.16796875 10.04296875 20.1875 12.1875 C20.53167969 12.90292969 20.87585938 13.61835938 21.23046875 14.35546875 C21.48441406 14.89816406 21.73835937 15.44085938 22 16 C25.83850052 11.75023156 27.82051401 7.20825526 30 2 C30.33 1.34 30.66 0.68 31 0 C35.62 0 40.24 0 45 0 C39.91071429 12.32142857 39.91071429 12.32142857 38 16 C37.34 16 36.68 16 36 16 C35.81824219 16.58007812 35.63648438 17.16015625 35.44921875 17.7578125 C35.19785156 18.53898437 34.94648437 19.32015625 34.6875 20.125 C34.44386719 20.89070313 34.20023438 21.65640625 33.94921875 22.4453125 C33 25 33 25 31.43359375 27.72265625 C29.57031584 31.98230247 29.47826935 35.71332571 29.375 40.3125 C29.10620453 48.89379547 29.10620453 48.89379547 28 50 C25.98035801 50.07244053 23.95832876 50.08377188 21.9375 50.0625 C20.83277344 50.05347656 19.72804688 50.04445313 18.58984375 50.03515625 C17.73519531 50.02355469 16.88054688 50.01195312 16 50 C15.98598145 49.15405273 15.98598145 49.15405273 15.97167969 48.29101562 C15.91742514 45.69318008 15.83389317 43.09704081 15.75 40.5 C15.72873047 39.1696875 15.72873047 39.1696875 15.70703125 37.8125 C15.47495193 31.49994258 14.09457485 27.49596493 11 22 C11 21.34 11 20.68 11 20 C10.34 20 9.68 20 9 20 C5.70967443 15.51319241 3.98785807 10.15072536 2 5 C1.34 3.35 0.68 1.7 0 0 Z " fill="#971B21" transform="translate(608,249)"/>
<path d="M0 0 C11.88 0 23.76 0 36 0 C36 3.96 36 7.92 36 12 C32.04 12 28.08 12 24 12 C24 24.21 24 36.42 24 49 C20.04 49 16.08 49 12 49 C12 36.46 12 23.92 12 11 C8.04 11 4.08 11 0 11 C0 7.37 0 3.74 0 0 Z " fill="#951C21" transform="translate(717,249)"/>
<path d="M0 0 C4.29 0 8.58 0 13 0 C13 12.21 13 24.42 13 37 C18.94 37 24.88 37 31 37 C31 40.96 31 44.92 31 49 C20.77 49 10.54 49 0 49 C0 32.83 0 16.66 0 0 Z " fill="#901C1F" transform="translate(321,249)"/>
<path d="M0 0 C3.96 0 7.92 0 12 0 C12 12.87 12 25.74 12 39 C18.6 39 25.2 39 32 39 C32 42.63 32 46.26 32 50 C21.44 50 10.88 50 0 50 C0 33.5 0 17 0 0 Z " fill="#911A20" transform="translate(272,248)"/>
<path d="M0 0 C3.96 0 7.92 0 12 0 C12 16.17 12 32.34 12 49 C8.04 49 4.08 49 0 49 C0 32.83 0 16.66 0 0 Z " fill="#961C21" transform="translate(370,249)"/>
<path d="M0 0 C3.96 0 7.92 0 12 0 C12 16.17 12 32.34 12 49 C8.04 49 4.08 49 0 49 C0 32.83 0 16.66 0 0 Z " fill="#941C21" transform="translate(239,249)"/>
<path d="M0 0 C1.9587043 0.14076315 3.91696093 0.2877676 5.875 0.4375 C7.51082031 0.55931641 7.51082031 0.55931641 9.1796875 0.68359375 C12 1 12 1 14 2 C14 2.66 14 3.32 14 4 C14.763125 4.268125 15.52625 4.53625 16.3125 4.8125 C20.56927288 6.69339965 21.64527181 8.26426746 23.6875 12.5 C25 16 25 16 25 19 C17.74 19 10.48 19 3 19 C0.36060754 12.40151886 -0.12061807 6.99584783 0 0 Z " fill="#D62733" transform="translate(504,148)"/>
<path d="M0 0 C7.59 0 15.18 0 23 0 C25.28571429 12.71428571 25.28571429 12.71428571 25 19 C22.36 19 19.72 19 17 19 C17 18.34 17 17.68 17 17 C16.278125 16.87625 15.55625 16.7525 14.8125 16.625 C10.51284285 15.66952063 7.82902928 15.02466094 4.98046875 11.50390625 C4.38878906 10.53324219 3.79710937 9.56257813 3.1875 8.5625 C2.58292969 7.59441406 1.97835938 6.62632813 1.35546875 5.62890625 C0 3 0 3 0 0 Z " fill="#D62733" transform="translate(378,59)"/>
<path d="M0 0 C6.93 0 13.86 0 21 0 C21 8.59022372 18.98264826 10.67239796 13.51171875 16.6171875 C10.66521499 19.33325847 9.08143981 19.99343227 5.125 20.3125 C4.09375 20.209375 3.0625 20.10625 2 20 C1.65591523 18.35638078 1.32541572 16.70991709 1 15.0625 C0.814375 14.14597656 0.62875 13.22945312 0.4375 12.28515625 C-0.10342768 8.22336894 0 4.09764797 0 0 Z " fill="#D82834" transform="translate(303,59)"/>
<path d="M0 0 C0.34677029 1.45519675 0.676436 2.91446806 1 4.375 C1.185625 5.18710938 1.37125 5.99921875 1.5625 6.8359375 C2.16385225 11.18500288 2 15.60955649 2 20 C-4.6 20 -11.2 20 -18 20 C-16.88075474 11.04603788 -16.42008767 7.84800444 -9.8515625 2.234375 C-6.52976173 0.01984115 -3.99179658 0 0 0 Z " fill="#D82834" transform="translate(601,146)"/>
<path d="M0 0 C1.98 0 3.96 0 6 0 C6 12.21 6 24.42 6 37 C11.94 37 17.88 37 24 37 C24 40.96 24 44.92 24 49 C22.68 49 21.36 49 20 49 C20 45.37 20 41.74 20 38 C13.4 38 6.8 38 0 38 C0 25.46 0 12.92 0 0 Z " fill="#232806" transform="translate(284,249)"/>
<path d="M0 0 C1.65 0 3.3 0 5 0 C3.80100302 3.0831351 2.52299523 6.06279492 1 9 C0.34 9 -0.32 9 -1 9 C-1.0825 9.845625 -1.165 10.69125 -1.25 11.5625 C-2.15733853 15.72113491 -3.76541273 18.39582699 -6 22 C-6.66 22 -7.32 22 -8 22 C-8.13277344 22.56589844 -8.26554688 23.13179688 -8.40234375 23.71484375 C-8.57894531 24.44832031 -8.75554688 25.18179687 -8.9375 25.9375 C-9.19853516 27.03384766 -9.19853516 27.03384766 -9.46484375 28.15234375 C-10 30 -10 30 -11 31 C-11.15620555 32.41327947 -11.25056173 33.8335459 -11.31640625 35.25390625 C-11.35830078 36.10791016 -11.40019531 36.96191406 -11.44335938 37.84179688 C-11.50233398 39.18854492 -11.50233398 39.18854492 -11.5625 40.5625 C-11.60568359 41.46419922 -11.64886719 42.36589844 -11.69335938 43.29492188 C-11.79978142 45.52978485 -11.90179988 47.76476308 -12 50 C-13.65 50 -15.3 50 -17 50 C-16.93960341 46.97715052 -16.85242308 43.95898091 -16.75 40.9375 C-16.73582031 40.08994141 -16.72164062 39.24238281 -16.70703125 38.36914062 C-16.47629123 32.39297421 -15.26559172 28.99734491 -12 24 C-11.37167434 22.5393773 -10.7764411 21.06285715 -10.25 19.5625 C-9.8375 18.386875 -9.425 17.21125 -9 16 C-8.34 16 -7.68 16 -7 16 C-6.82984375 15.43152344 -6.6596875 14.86304688 -6.484375 14.27734375 C-4.84932263 9.0677886 -2.86690828 4.64636859 0 0 Z " fill="#194702" transform="translate(653,249)"/>
<path d="M0 0 C-1.33439516 3.90053969 -2.99144751 6.38673408 -5.8125 9.375 C-11.97638532 16.00640367 -11.97638532 16.00640367 -16 24 C-15.16082031 24.28810547 -15.16082031 24.28810547 -14.3046875 24.58203125 C-11.01775889 26.604328 -9.24025883 29.54549145 -7.125 32.6875 C-4.36581021 36.68970122 -1.64388221 40.57616346 1.625 44.1875 C4 47 4 47 4 50 C1.796875 49.89453125 1.796875 49.89453125 -1 49 C-2.7976442 46.91366128 -4.25820526 44.97409601 -5.75 42.6875 C-6.61400105 41.41148246 -7.47992724 40.1367666 -8.34765625 38.86328125 C-8.78352051 38.2182666 -9.21938477 37.57325195 -9.66845703 36.90869141 C-10.9518607 35.06900496 -12.29245572 33.3021543 -13.68359375 31.54296875 C-14.10479492 31.00776611 -14.52599609 30.47256348 -14.95996094 29.92114258 C-16.12754192 28.45051999 -17.30377921 26.98678225 -18.48046875 25.5234375 C-20 23 -20 23 -20.0078125 21.00390625 C-18.58815173 18.18109239 -16.72896855 15.97149971 -14.6875 13.5625 C-13.90761719 12.63566406 -13.12773438 11.70882813 -12.32421875 10.75390625 C-11.55722656 9.84511719 -10.79023437 8.93632812 -10 8 C-8.66376913 6.3356555 -7.32982013 4.66947116 -6 3 C-3.4137931 0 -3.4137931 0 0 0 Z " fill="#214A04" transform="translate(136,249)"/>
<path d="M0 0 C7.2170395 0.36696811 7.2170395 0.36696811 10.9375 3.375 C15.04265647 8.5997446 13.951105 14.14763486 13.7421875 20.43359375 C14.02160702 24.29889717 14.67529825 25.10917917 17 28 C17.328125 30.69140625 17.328125 30.69140625 17.25 33.5625 C17.23453125 34.51253906 17.2190625 35.46257812 17.203125 36.44140625 C16.87989167 40.51290304 15.85401748 42.46659426 12.875 45.125 C9.25362654 48.15405772 6.66597824 48.80955191 2 49 C5 46 8 43 11 40 C11.21187381 33.64378567 10.76045528 27.41710843 10.20703125 21.0859375 C10.03517531 18.52431129 10.04549354 16.11861637 10.1875 13.5625 C9.95508274 9.14657198 8.91258999 7.29582551 6 4 C2.89985071 2.11431306 2.89985071 2.11431306 0 1 C0 0.67 0 0.34 0 0 Z " fill="#134F00" transform="translate(209,249)"/>
<path d="M0 0 C3.47703397 3.05067462 4.91286748 5.72072641 6.4375 10.0625 C8.01270496 14.40403712 9.69056975 18.58581311 11.6875 22.75 C13.5892575 26.82689264 14.77315028 30.65724243 15.59765625 35.0703125 C15.97668444 37.18070652 15.97668444 37.18070652 17.125 39.75 C18.11786058 42.30307007 18.1551809 44.28433419 18 47 C15.03 47.495 15.03 47.495 12 48 C11.86424561 47.28457031 11.72849121 46.56914062 11.58862305 45.83203125 C10.96218715 42.55325039 10.32493273 39.27665994 9.6875 36 C9.47416016 34.87464844 9.26082031 33.74929687 9.04101562 32.58984375 C7.83480882 26.43278814 6.40011037 20.7960112 4 15 C3.2659872 13.08518399 2.53618745 11.1687422 1.8125 9.25 C1.46832031 8.34765625 1.12414062 7.4453125 0.76953125 6.515625 C0 4 0 4 0 0 Z " fill="#CD2531" transform="translate(580,90)"/>
<path d="M0 0 C1.32 0 2.64 0 4 0 C4 16.17 4 32.34 4 49 C2.68 49 1.36 49 0 49 C0 32.83 0 16.66 0 0 Z " fill="#1E4F03" transform="translate(443,249)"/>
<path d="M0 0 C1.32 0 2.64 0 4 0 C4 16.17 4 32.34 4 49 C2.68 49 1.36 49 0 49 C0 32.83 0 16.66 0 0 Z " fill="#174D01" transform="translate(251,249)"/>
<path d="M0 0 C1.32 0 2.64 0 4 0 C4 16.17 4 32.34 4 49 C2.68 49 1.36 49 0 49 C0 32.83 0 16.66 0 0 Z " fill="#144F01" transform="translate(869,249)"/>
<path d="M0 0 C1.32 0 2.64 0 4 0 C4 16.17 4 32.34 4 49 C2.68 49 1.36 49 0 49 C0 32.83 0 16.66 0 0 Z " fill="#154E01" transform="translate(382,249)"/>
<path d="M0 0 C1.32 0 2.64 0 4 0 C4 1.65 4 3.3 4 5 C4.66 5 5.32 5 6 5 C6.16604736 5.74048584 6.33209473 6.48097168 6.50317383 7.24389648 C7.2681979 10.64285361 8.04029593 14.04016721 8.8125 17.4375 C9.07353516 18.60216797 9.33457031 19.76683594 9.60351562 20.96679688 C10.94219419 26.83384489 12.35472356 32.50836511 14.5534668 38.11743164 C15.09211221 40.38834184 14.72099357 41.80714303 14 44 C7.77851293 31.91944258 7.77851293 31.91944258 5.71484375 25.97265625 C5.19701577 24.54367739 4.61829268 23.13629364 4.00390625 21.74609375 C1.0637138 15.03642379 -0.43730463 8.31503987 -1 1 C-0.67 0.67 -0.34 0.34 0 0 Z " fill="#CD2531" transform="translate(310,88)"/>
<path d="M0 0 C0.66 0 1.32 0 2 0 C2.25394531 0.7734375 2.50789063 1.546875 2.76953125 2.34375 C5.77382167 11.43538543 9.06566452 20.26015903 12.81640625 29.0703125 C14.73237346 33.8128056 16.30370817 37.83696107 16 43 C14.02 43 12.04 43 10 43 C8.55319339 38.55623685 7.708803 34.25774332 7.0625 29.625 C6.38728294 24.98815784 5.40601683 20.860653 3.796875 16.4765625 C2.07036688 11.11084608 1.10729142 5.52075084 0 0 Z " fill="#C4232E" transform="translate(491,97)"/>
<path d="M0 0 C1.98 0 3.96 0 6 0 C6.16604736 0.79583496 6.33209473 1.59166992 6.50317383 2.41162109 C7.26849984 6.06702837 8.04045247 9.72100671 8.8125 13.375 C9.07353516 14.62667969 9.33457031 15.87835938 9.60351562 17.16796875 C10.95283141 23.53140864 12.3994523 29.76098842 14.45581055 35.93603516 C15 38 15 38 15 42 C14.34 42 13.68 42 13 42 C12.63648438 40.9584375 12.27296875 39.916875 11.8984375 38.84375 C11.39085517 37.39575263 10.8830232 35.94784275 10.375 34.5 C9.97438354 33.3543457 9.97438354 33.3543457 9.56567383 32.18554688 C8.20095902 28.30801751 6.80360797 24.45132751 5.30078125 20.625 C2.60641642 13.75260342 0.26679157 7.47016393 0 0 Z " fill="#CC2530" transform="translate(400,85)"/>
<path d="M0 0 C1.32 0 2.64 0 4 0 C4.16757812 0.763125 4.33515625 1.52625 4.5078125 2.3125 C6.66171393 6.19177796 9.84959184 6.77456601 13.875 8 C19.36513245 9.68927152 22.81581109 10.87969622 26 16 C27.04976964 19.14930893 27.10131595 21.38814456 27.0625 24.6875 C27.05347656 25.68136719 27.04445313 26.67523438 27.03515625 27.69921875 C27.02355469 28.45847656 27.01195313 29.21773438 27 30 C26.01 30.33 25.02 30.66 24 31 C23.68804687 31.63292969 23.37609375 32.26585937 23.0546875 32.91796875 C21.76451707 35.46486074 20.66169571 36.07286946 18.125 37.3125 C17.44695312 37.65925781 16.76890625 38.00601563 16.0703125 38.36328125 C13.64262754 39.10990889 12.36734455 38.82273185 10 38 C10.81404297 37.65388672 10.81404297 37.65388672 11.64453125 37.30078125 C16.28362072 35.18602515 18.6484675 33.703065 21 29 C21.66 29 22.32 29 23 29 C22.79014362 21.84739502 22.79014362 21.84739502 20.625 15.125 C16.53404149 11.81327168 11.83836545 9.99967127 7 8 C3.375 6.5 3.375 6.5 1 5 C0.125 2.3125 0.125 2.3125 0 0 Z " fill="#164702" transform="translate(50,261)"/>
<path d="M0 0 C1.65 0 3.3 0 5 0 C5.33 1.65 5.66 3.3 6 5 C7.39025391 5.38091797 7.39025391 5.38091797 8.80859375 5.76953125 C10.00613281 6.11371094 11.20367188 6.45789063 12.4375 6.8125 C13.63246094 7.14894531 14.82742188 7.48539062 16.05859375 7.83203125 C17.51458984 8.41017578 17.51458984 8.41017578 19 9 C19.33 9.99 19.66 10.98 20 12 C20.61875 12.28875 21.2375 12.5775 21.875 12.875 C24.85211821 14.4511214 25.65953238 15.91692448 27 19 C27.45238874 23.06342032 27.30095552 27.09713345 26 31 C25.34 31 24.68 31 24 31 C23.773125 31.598125 23.54625 32.19625 23.3125 32.8125 C21.61373148 35.64378087 19.99034445 36.64722513 17 38 C14.6875 37.6875 14.6875 37.6875 13 37 C13.7425 36.649375 14.485 36.29875 15.25 35.9375 C19.40760872 33.00827567 21.50975587 29.65094973 22.421875 24.71875 C22.67060968 20.57317194 22.44056949 18.60077658 19.9375 15.1875 C15.1952279 11.65602077 10.58220971 9.22805941 5.125 7.0625 C2.82421875 6.08203125 2.82421875 6.08203125 1 5 C-0.0625 2.25 -0.0625 2.25 0 0 Z " fill="#0F4C00" transform="translate(680,261)"/>
<path d="M0 0 C1.65 0 3.3 0 5 0 C5.33 1.65 5.66 3.3 6 5 C6.6290625 5.14695312 7.258125 5.29390625 7.90625 5.4453125 C15.43211708 7.41745237 20.81374076 10.41545836 26 16.25 C27.56845844 20.56326072 27.85976064 24.48273303 27 29 C24.78693144 33.21424757 21.63658588 35.94744352 17.375 38 C14.02199935 38.99348167 13.14943166 38.99021432 10 38 C10.55429687 37.74605469 11.10859375 37.49210937 11.6796875 37.23046875 C12.40414062 36.88628906 13.12859375 36.54210937 13.875 36.1875 C14.59429688 35.85105469 15.31359375 35.51460938 16.0546875 35.16796875 C18.30542806 34.00532903 18.30542806 34.00532903 20 31 C20.66 31 21.32 31 22 31 C22.10864945 28.93867858 22.18588321 26.87568679 22.25 24.8125 C22.29640625 23.66394531 22.3428125 22.51539063 22.390625 21.33203125 C21.92028048 17.31999247 20.8354451 15.82044274 18 13 C16.22650301 11.7380959 16.22650301 11.7380959 14.3125 10.9375 C13.62671875 10.61523438 12.9409375 10.29296875 12.234375 9.9609375 C10.67417263 9.28994138 9.09963471 8.6517455 7.515625 8.0390625 C5.2378993 7.13232456 3.09845683 6.26915402 1 5 C-0.0625 2.25 -0.0625 2.25 0 0 Z " fill="#1A4E02" transform="translate(573,261)"/>
<path d="M0 0 C4.29 0 8.58 0 13 0 C13 0.33 13 0.66 13 1 C9.37 1 5.74 1 2 1 C2 16.84 2 32.68 2 49 C4.97 49 7.94 49 11 49 C11 40.75 11 32.5 11 24 C11.33 24 11.66 24 12 24 C12 32.91 12 41.82 12 51 C8.04 51 4.08 51 0 51 C0 34.17 0 17.34 0 0 Z " fill="#6D1518" transform="translate(819,248)"/>
<path d="M0 0 C1.32 0 2.64 0 4 0 C4 12.21 4 24.42 4 37 C2.68 37 1.36 37 0 37 C0 24.79 0 12.58 0 0 Z " fill="#154C01" transform="translate(741,261)"/>
<path d="M0 0 C0.66 0 1.32 0 2 0 C2 15.84 2 31.68 2 48 C5.3 48 8.6 48 12 48 C12 44.37 12 40.74 12 37 C12.33 37 12.66 37 13 37 C13 41.29 13 45.58 13 50 C3.72265625 50.09765625 3.72265625 50.09765625 1 50 C0 49 0 49 -0.12025452 47.01951599 C-0.11803391 46.15125687 -0.11581329 45.28299774 -0.11352539 44.38842773 C-0.11344986 43.40748642 -0.11337433 42.4265451 -0.11329651 41.4158783 C-0.10813522 40.3492244 -0.10297394 39.2825705 -0.09765625 38.18359375 C-0.0962413 37.0974025 -0.09482635 36.01121124 -0.09336853 34.8921051 C-0.08775048 31.40720925 -0.07519492 27.92237658 -0.0625 24.4375 C-0.05748733 22.08138113 -0.05292402 19.72526126 -0.04882812 17.36914062 C-0.03777519 11.57940536 -0.02101951 5.78970719 0 0 Z " fill="#671616" transform="translate(91,249)"/>
<path d="M0 0 C0.66 0 1.32 0 2 0 C6.24973737 6.00398943 6.40350946 10.23333614 5.75 17.4375 C5.68425781 18.35982422 5.61851562 19.28214844 5.55078125 20.23242188 C5.38697777 22.49056986 5.20298937 24.74509451 5 27 C3.35 27 1.7 27 0 27 C0 18.09 0 9.18 0 0 Z " fill="#0F4100" transform="translate(831,272)"/>
<path d="M0 0 C0.58265625 0.22300781 1.1653125 0.44601562 1.765625 0.67578125 C0.940625 1.45953125 0.115625 2.24328125 -0.734375 3.05078125 C-3.71239974 6.63119846 -3.91206162 9.71465527 -3.64453125 14.26953125 C-3.00737463 18.00751674 -1.91417788 19.99597837 0.765625 22.67578125 C3.46719235 23.7378478 5.87246595 24.19358808 8.765625 24.67578125 C8.765625 25.00578125 8.765625 25.33578125 8.765625 25.67578125 C0.84677516 26.29686751 0.84677516 26.29686751 -3.171875 23.98828125 C-5.29208658 21.61107433 -6.30867131 19.70535697 -7.234375 16.67578125 C-7.894375 16.67578125 -8.554375 16.67578125 -9.234375 16.67578125 C-9.79669006 12.23974024 -10.26717958 8.32030204 -7.81640625 4.41796875 C-3.18346052 -0.46193571 -3.18346052 -0.46193571 0 0 Z " fill="#175101" transform="translate(482.234375,261.32421875)"/>
<path d="M0 0 C1.32 0 2.64 0 4 0 C4.55063293 6.65654033 4.56981192 11.69399798 0.55078125 17.21875 C-3.91028052 22.34279072 -8.49594928 25.91379505 -15 28 C-17.20703125 27.56640625 -17.20703125 27.56640625 -19 27 C-17.80375 26.443125 -16.6075 25.88625 -15.375 25.3125 C-8.32755304 21.73897124 -3.49672744 17.59475729 -1 10 C-0.43446663 6.66858075 -0.13830814 3.37471873 0 0 Z " fill="#244A05" transform="translate(511,271)"/>
<path d="M0 0 C2.31243792 -0.02685412 4.6249627 -0.04632841 6.9375 -0.0625 C8.22527344 -0.07410156 9.51304687 -0.08570313 10.83984375 -0.09765625 C14 0 14 0 15 1 C15.1875 3.4375 15.1875 3.4375 15 6 C13 8 13 8 9.9609375 8.1953125 C8.77757812 8.17210937 7.59421875 8.14890625 6.375 8.125 C5.18648437 8.10695313 3.99796875 8.08890625 2.7734375 8.0703125 C1.85820312 8.04710937 0.94296875 8.02390625 0 8 C0 5.36 0 2.72 0 0 Z " fill="#070701" transform="translate(195,279)"/>
<path d="M0 0 C0.99 0 1.98 0 3 0 C3 12.21 3 24.42 3 37 C2.01 37 1.02 37 0 37 C0 24.79 0 12.58 0 0 Z " fill="#165301" transform="translate(285,249)"/>
<path d="M0 0 C0.99 0 1.98 0 3 0 C3 12.21 3 24.42 3 37 C2.01 37 1.02 37 0 37 C0 24.79 0 12.58 0 0 Z " fill="#115200" transform="translate(334,249)"/>
<path d="M0 0 C1.95803507 -0.05389087 3.91648909 -0.09274217 5.875 -0.125 C7.51082031 -0.15980469 7.51082031 -0.15980469 9.1796875 -0.1953125 C12 0 12 0 14 2 C13.44444444 6.55555556 13.44444444 6.55555556 12 8 C9.98035801 8.07244053 7.95832876 8.08377188 5.9375 8.0625 C4.83277344 8.05347656 3.72804687 8.04445313 2.58984375 8.03515625 C1.30787109 8.01775391 1.30787109 8.01775391 0 8 C0 5.36 0 2.72 0 0 Z " fill="#201406" transform="translate(195,260)"/>
<path d="M0 0 C3.91750479 5.03679187 6.33818674 9.73076246 8.23828125 15.79296875 C9.01980254 18.23158498 9.01980254 18.23158498 10.6875 21.25 C12.05830635 24.12216569 12.27662009 25.86497235 12 29 C8.67829507 26.31100077 7.49641669 22.91918656 6 19 C6 18.34 6 17.68 6 17 C5.34 17 4.68 17 4 17 C2.23828125 14.4453125 2.23828125 14.4453125 0.3125 11.125 C-0.33074219 10.03445312 -0.97398437 8.94390625 -1.63671875 7.8203125 C-2.08660156 6.88960938 -2.53648437 5.95890625 -3 5 C-2.67 4.34 -2.34 3.68 -2 3 C-1.34 3.33 -0.68 3.66 0 4 C0 2.68 0 1.36 0 0 Z " fill="#3A090D" transform="translate(601,71)"/>
<path d="M0 0 C4 4 4 4 4.45410156 6.47363281 C4.4331543 7.37436523 4.41220703 8.27509766 4.390625 9.203125 C4.37773437 10.1828125 4.36484375 11.1625 4.3515625 12.171875 C4.31804687 13.18765625 4.28453125 14.2034375 4.25 15.25 C4.23195313 16.28125 4.21390625 17.3125 4.1953125 18.375 C4.14822712 20.91761064 4.0824805 23.45833162 4 26 C2.68 26 1.36 26 0 26 C0 17.42 0 8.84 0 0 Z " fill="#0F4900" transform="translate(416,272)"/>
<path d="M0 0 C3.73792227 2.49194818 4.15292799 4.33407478 5.6875 8.5 C6.12449219 9.6653125 6.56148438 10.830625 7.01171875 12.03125 C8 15 8 15 8 17 C8.66 17 9.32 17 10 17 C10.8638129 18.45264038 11.71580454 19.9123163 12.5625 21.375 C13.03816406 22.18710938 13.51382812 22.99921875 14.00390625 23.8359375 C14.33261719 24.55007812 14.66132813 25.26421875 15 26 C13.93453047 28.13093906 12.70840281 29.36587557 11 31 C10.1605118 28.89828133 9.32860344 26.79353375 8.5 24.6875 C8.0359375 23.51574219 7.571875 22.34398437 7.09375 21.13671875 C6 18 6 18 6 15 C5.34 15 4.68 15 4 15 C3.32532438 13.25307205 2.66055844 11.50231475 2 9.75 C1.62875 8.77546875 1.2575 7.8009375 0.875 6.796875 C0 4 0 4 0 0 Z " fill="#440B0F" transform="translate(292,121)"/>
<path d="M0 0 C2.16796875 -0.47265625 2.16796875 -0.47265625 5 0 C7.1932836 2.25356915 8.71100052 4.86960828 10.3125 7.5625 C10.76689453 8.26697266 11.22128906 8.97144531 11.68945312 9.69726562 C14.56358622 14.38664068 15.54107876 17.50985415 15 23 C12.13761347 20.30997223 10.0346027 17.70495367 8.0625 14.3125 C7.30259766 13.01119141 7.30259766 13.01119141 6.52734375 11.68359375 C4.32039991 7.80592005 2.13784098 3.91622196 0 0 Z " fill="#1D4D03" transform="translate(416,249)"/>
<path d="M0 0 C26.73 0 53.46 0 81 0 C81 0.33 81 0.66 81 1 C55.26 1.33 29.52 1.66 3 2 C2.67 2.66 2.34 3.32 2 4 C1.34 3.67 0.68 3.34 0 3 C0 2.01 0 1.02 0 0 Z " fill="#230507" transform="translate(461,49)"/>
<path d="M0 0 C2.41696872 -0.05411124 4.83271787 -0.09372278 7.25 -0.125 C7.93191406 -0.14175781 8.61382812 -0.15851563 9.31640625 -0.17578125 C13.0608235 -0.21213482 15.82352727 -0.07944349 19 2 C19 2.66 19 3.32 19 4 C19.763125 4.226875 20.52625 4.45375 21.3125 4.6875 C24.54736301 6.26731682 25.41641358 7.83282717 27 11 C25.93106782 12.03590338 24.84421512 13.05333942 23.75 14.0625 C23.14671875 14.63097656 22.5434375 15.19945312 21.921875 15.78515625 C20 17 20 17 17.765625 16.68359375 C17.18296875 16.45800781 16.6003125 16.23242188 16 16 C17.98 14.35 19.96 12.7 22 11 C20.15863065 6.30650966 17.20668758 5.12354978 12.8203125 3.0390625 C8.59413102 1.48204827 4.47798624 1.10480393 0 1 C0 0.67 0 0.34 0 0 Z " fill="#164C01" transform="translate(483,248)"/>
<path d="M0 0 C3.76862513 3.62628497 7.06442189 7.41838716 10.25 11.5625 C10.69601563 12.12646484 11.14203125 12.69042969 11.6015625 13.27148438 C13.77238445 16.08368554 15.54443967 18.41684276 16 22 C13.828125 21.9140625 13.828125 21.9140625 11 21 C9.01708695 18.81175572 7.40404177 16.78673156 5.75 14.375 C5.30398437 13.77042969 4.85796875 13.16585938 4.3984375 12.54296875 C1.43661666 8.33359307 0.3433288 5.1367271 0 0 Z " fill="#104100" transform="translate(124,277)"/>
<path d="M0 0 C11.18118033 -0.32566545 17.26792477 0.95228446 26 8 C25.875 10.25 25.875 10.25 25 13 C22.00793896 15.51605133 20.05202351 16.90851969 16.125 17.25 C15.42375 17.1675 14.7225 17.085 14 17 C16.52788007 14.20127563 18.20411134 12.54226981 22 12 C20.56997029 8.0674183 19.13450978 5.70584457 15.5 3.6875 C10.52909493 1.45244753 5.38705915 1.19805365 0 1 C0 0.67 0 0.34 0 0 Z " fill="#233D05" transform="translate(572,248)"/>
<path d="M0 0 C14.14141414 -0.42424242 14.14141414 -0.42424242 20 2 C26 8.07725322 26 8.07725322 26 12 C23.02149733 14.83258179 20.1783541 16.87464318 16.0625 17.3125 C15.381875 17.209375 14.70125 17.10625 14 17 C16.52788007 14.20127563 18.20411134 12.54226981 22 12 C20.56997029 8.0674183 19.13450978 5.70584457 15.5 3.6875 C10.52909493 1.45244753 5.38705915 1.19805365 0 1 C0 0.67 0 0.34 0 0 Z " fill="#243D05" transform="translate(679,248)"/>
<path d="M0 0 C0.66 0 1.32 0 2 0 C2.81487171 2.24916619 3.62696918 4.49926978 4.4375 6.75 C4.78264648 7.70132813 4.78264648 7.70132813 5.13476562 8.671875 C6.24244769 11.75412076 7.29661036 14.79836438 8 18 C6.02 18 4.04 18 2 18 C-0.1583195 11.92972642 -0.20852314 6.40629424 0 0 Z " fill="#D22732" transform="translate(499,122)"/>
<path d="M0 0 C0.33 0 0.66 0 1 0 C1 5.61 1 11.22 1 17 C4.3 17 7.6 17 11 17 C11 11.72 11 6.44 11 1 C11.66 0.67 12.32 0.34 13 0 C13.02683987 2.97922593 13.04676037 5.95821295 13.0625 8.9375 C13.07087891 9.78763672 13.07925781 10.63777344 13.08789062 11.51367188 C13.09111328 12.32255859 13.09433594 13.13144531 13.09765625 13.96484375 C13.10289307 14.7137085 13.10812988 15.46257324 13.11352539 16.23413086 C13 18 13 18 12 19 C7.99779347 19.14355117 4.00558317 19.04216403 0 19 C0 12.73 0 6.46 0 0 Z " fill="#601F14" transform="translate(624,280)"/>
<path d="M0 0 C1.32 0 2.64 0 4 0 C4 0.66 4 1.32 4 2 C4.66 2 5.32 2 6 2 C7.71767682 5.98188718 9.41037341 9.96479403 11 14 C11.66 14 12.32 14 13 14 C13 14.66 13 15.32 13 16 C13.66 16.33 14.32 16.66 15 17 C14.34 17.99 13.68 18.98 13 20 C12.34 20 11.68 20 11 20 C9.76318359 18.27172852 9.76318359 18.27172852 8.3984375 15.87890625 C7.90859375 15.02619141 7.41875 14.17347656 6.9140625 13.29492188 C6.40617188 12.39322266 5.89828125 11.49152344 5.375 10.5625 C4.859375 9.66466797 4.34375 8.76683594 3.8125 7.84179688 C0 1.1598359 0 1.1598359 0 0 Z " fill="#194C02" transform="translate(832,249)"/>
<path d="M0 0 C3 1 3 1 4.9375 4.4921875 C5.63498393 5.94838487 6.32208803 7.4095888 7 8.875 C7.68178874 10.33341276 8.369114 11.78925271 9.0625 13.2421875 C9.36285156 13.8904248 9.66320312 14.53866211 9.97265625 15.20654297 C10.94483822 17.08767113 10.94483822 17.08767113 12.62109375 18.60986328 C14 20 14 20 14 22 C12.35 22 10.7 22 9 22 C5.35495149 16.32992454 0 6.90459875 0 0 Z " fill="#C8242F" transform="translate(423,153)"/>
<path d="M0 0 C14.96635039 -0.43591312 14.96635039 -0.43591312 21.3125 4.3125 C24.0563797 7.0563797 24.78320856 8.20614979 25 12 C19.375 16 19.375 16 16 16 C16 15.34 16 14.68 16 14 C17.98 13.34 19.96 12.68 22 12 C19.37351608 7.02350414 16.41260386 3.80420129 11 2 C9.10787263 1.77820215 7.21115528 1.59385985 5.3125 1.4375 C4.31863281 1.35371094 3.32476562 1.26992187 2.30078125 1.18359375 C1.16189453 1.09271484 1.16189453 1.09271484 0 1 C0 0.67 0 0.34 0 0 Z " fill="#175001" transform="translate(49,248)"/>
<path d="M0 0 C1.32 0 2.64 0 4 0 C4 0.66 4 1.32 4 2 C4.66 2 5.32 2 6 2 C6.99 4.97 7.98 7.94 9 11 C10.32 11 11.64 11 13 11 C12.34 12.65 11.68 14.3 11 16 C10.01 16 9.02 16 8 16 C7.32845067 14.71086513 6.66291141 13.41859796 6 12.125 C5.62875 11.40570313 5.2575 10.68640625 4.875 9.9453125 C4 8 4 8 4 6 C3.01 5.67 2.02 5.34 1 5 C0.67 3.35 0.34 1.7 0 0 Z " fill="#1B4C02" transform="translate(621,249)"/>
<path d="M0 0 C2.43933105 2.43933105 2.37608173 3.31589028 2.5 6.6875 C2.39393165 11.58078661 1.22366849 14.15133151 -2.21484375 17.58984375 C-5.07350146 19.84799568 -7.48755917 20.95927679 -11 22 C-13.2109375 21.5625 -13.2109375 21.5625 -15 21 C-14.44570313 20.74605469 -13.89140625 20.49210937 -13.3203125 20.23046875 C-12.59585938 19.88628906 -11.87140625 19.54210937 -11.125 19.1875 C-10.04605469 18.68283203 -10.04605469 18.68283203 -8.9453125 18.16796875 C-6.69457194 17.00532903 -6.69457194 17.00532903 -5 14 C-2.875 12.8125 -2.875 12.8125 -1 12 C-1.020625 10.948125 -1.04125 9.89625 -1.0625 8.8125 C-1.01103198 5.67295096 -0.73482813 3.03116604 0 0 Z " fill="#0E4900" transform="translate(598,278)"/>
<path d="M0 0 C0.33 0 0.66 0 1 0 C1.40785189 5.12508226 0.30270258 7.98925654 -2.3125 12.375 C-2.92738281 13.43460937 -3.54226563 14.49421875 -4.17578125 15.5859375 C-4.77777344 16.38257813 -5.37976563 17.17921875 -6 18 C-6.99 18 -7.98 18 -9 18 C-8.41468513 13.61013844 -6.76955241 10.52638639 -4.5 6.75 C-3.8709375 5.69296875 -3.241875 4.6359375 -2.59375 3.546875 C-1 1 -1 1 0 0 Z " fill="#1E4C03" transform="translate(856,272)"/>
<path d="M0 0 C1.65 0 3.3 0 5 0 C5.33 1.65 5.66 3.3 6 5 C7.39025391 5.38091797 7.39025391 5.38091797 8.80859375 5.76953125 C10.00613281 6.11371094 11.20367188 6.45789063 12.4375 6.8125 C13.63246094 7.14894531 14.82742188 7.48539062 16.05859375 7.83203125 C17.51458984 8.41017578 17.51458984 8.41017578 19 9 C19.33 9.99 19.66 10.98 20 12 C20.66 12 21.32 12 22 12 C22 12.99 22 13.98 22 15 C18.41673411 13.69699422 15.24717022 12.01868531 11.9765625 10.06640625 C9.75228628 8.86635208 7.47696373 7.98461911 5.125 7.0625 C2.82421875 6.08203125 2.82421875 6.08203125 1 5 C-0.0625 2.25 -0.0625 2.25 0 0 Z " fill="#2B4007" transform="translate(680,261)"/>
<path d="M0 0 C0.99 0 1.98 0 3 0 C2.67 5.28 2.34 10.56 2 16 C0.68 16 -0.64 16 -2 16 C-2.05402274 13.89611431 -2.09280256 11.79183286 -2.125 9.6875 C-2.14820312 8.51574219 -2.17140625 7.34398437 -2.1953125 6.13671875 C-2 3 -2 3 0 0 Z " fill="#164A01" transform="translate(106,282)"/>
<path d="M0 0 C1.65 0 3.3 0 5 0 C6.15879664 2.18144224 7.30187378 4.36903017 8.4375 6.5625 C8.76298828 7.17158203 9.08847656 7.78066406 9.42382812 8.40820312 C11.60371221 12.65560614 12.56519369 16.24162667 13 21 C9.38792234 17.73192974 7.43080315 14.03018143 5.5625 9.5625 C3.99431283 5.98703324 2.24306393 3.17122831 0 0 Z " fill="#CD2530" transform="translate(470,51)"/>
<path d="M0 0 C1.65 0 3.3 0 5 0 C5 3.96 5 7.92 5 12 C3.35 12 1.7 12 0 12 C0 8.04 0 4.08 0 0 Z " fill="#1B4303" transform="translate(799,249)"/>
<path d="M0 0 C1.32 0 2.64 0 4 0 C4.1080023 2.10304477 4.18558987 4.20766909 4.25 6.3125 C4.29640625 7.48425781 4.3428125 8.65601563 4.390625 9.86328125 C4.26171875 10.89839844 4.1328125 11.93351562 4 13 C2.68 13.99 1.36 14.98 0 16 C0 10.72 0 5.44 0 0 Z " fill="#134B01" transform="translate(104,249)"/>
<path d="M0 0 C0.66 0 1.32 0 2 0 C2.66 1.98 3.32 3.96 4 6 C3.67 6 3.34 6 3 6 C2.67 12.27 2.34 18.54 2 25 C1.34 25.33 0.68 25.66 0 26 C0 17.42 0 8.84 0 0 Z " fill="#364608" transform="translate(831,272)"/>
<path d="M0 0 C1.32 0 2.64 0 4 0 C4.55353075 11.52164009 4.55353075 11.52164009 1 17 C-0.13480527 13.39006828 -0.10015767 10.0157673 -0.0625 6.25 C-0.05347656 5.07953125 -0.04445313 3.9090625 -0.03515625 2.703125 C-0.02355469 1.81109375 -0.01195312 0.9190625 0 0 Z " fill="#1F5003" transform="translate(511,271)"/>
<path d="M0 0 C2 1.3125 2 1.3125 4 4 C4.55386882 8.8049918 4.53371415 13.39885754 3 18 C0.9375 19.1875 0.9375 19.1875 -1 20 C-1 19.01 -1 18.02 -1 17 C-0.34 17 0.32 17 1 17 C0.814375 16.360625 0.62875 15.72125 0.4375 15.0625 C-0.06505143 11.54464001 0.31907464 8.57979841 0.84375 5.0859375 C1.14961539 2.80516582 1.14961539 2.80516582 0 0 Z " fill="#0B3D00" transform="translate(222,273)"/>
<path d="M0 0 C1.32 0 2.64 0 4 0 C4 3.96 4 7.92 4 12 C2.68 12 1.36 12 0 12 C0 8.04 0 4.08 0 0 Z " fill="#124801" transform="translate(798,267)"/>
<path d="M0 0 C1.32 0 2.64 0 4 0 C4.20367187 0.77730469 4.40734375 1.55460937 4.6171875 2.35546875 C5.79411789 5.24619662 5.79411789 5.24619662 8.8203125 6.36328125 C9.91085938 6.67652344 11.00140625 6.98976563 12.125 7.3125 C13.76855469 7.80169922 13.76855469 7.80169922 15.4453125 8.30078125 C16.28835937 8.53152344 17.13140625 8.76226562 18 9 C18 9.99 18 10.98 18 12 C14.19647466 10.79888674 10.46692147 9.44367385 6.75 8 C5.89921875 7.67 5.0484375 7.34 4.171875 7 C2 6 2 6 0 4 C0 2.68 0 1.36 0 0 Z " fill="#364009" transform="translate(50,261)"/>
<path d="M0 0 C2.64833708 2.64833708 2.44850203 4.31108361 2.75 8 C2.89695313 9.60875 2.89695313 9.60875 3.046875 11.25 C3 14 3 14 1 16 C0.7525 16.66 0.505 17.32 0.25 18 C-1 20 -1 20 -4 21.3125 C-7 22 -7 22 -9 21 C-8.071875 20.4225 -7.14375 19.845 -6.1875 19.25 C-3.24942088 17.1760618 -1.75526831 16.05082349 0 13 C0.36208096 9.72283998 0.36208096 9.72283998 0.1875 6.25 C0.16042969 5.07953125 0.13335937 3.9090625 0.10546875 2.703125 C0.05326172 1.36507813 0.05326172 1.36507813 0 0 Z " fill="#3F420B" transform="translate(220,276)"/>
<path d="M0 0 C1.32 0 2.64 0 4 0 C4 3.63 4 7.26 4 11 C2.68 11 1.36 11 0 11 C0 7.37 0 3.74 0 0 Z " fill="#1A4C02" transform="translate(352,287)"/>
<path d="M0 0 C1.32 0 2.64 0 4 0 C4 3.63 4 7.26 4 11 C2.68 11 1.36 11 0 11 C0 7.37 0 3.74 0 0 Z " fill="#144B01" transform="translate(800,287)"/>
<path d="M0 0 C1.32 0 2.64 0 4 0 C4 3.63 4 7.26 4 11 C2.68 11 1.36 11 0 11 C0 7.37 0 3.74 0 0 Z " fill="#1A4D02" transform="translate(753,249)"/>
<path d="M0 0 C1.32 0 2.64 0 4 0 C2.80100302 3.0831351 1.52299523 6.06279492 0 9 C-0.66 9 -1.32 9 -2 9 C-2.12375 9.969375 -2.2475 10.93875 -2.375 11.9375 C-2.58125 12.948125 -2.7875 13.95875 -3 15 C-3.99 15.495 -3.99 15.495 -5 16 C-3.90301833 10.30860098 -2.45946923 5.25432063 0 0 Z " fill="#0D4400" transform="translate(654,249)"/>
<path d="M0 0 C1.32 0 2.64 0 4 0 C4 2.31 4 4.62 4 7 C6.97 7 9.94 7 13 7 C13 7.33 13 7.66 13 8 C8.71 8 4.42 8 0 8 C0 5.36 0 2.72 0 0 Z " fill="#2F3E07" transform="translate(195,279)"/>
<path d="M0 0 C3.78520613 0.54074373 5.59177555 2.07572746 8 5 C8 5.99 8 6.98 8 8 C1.25 6.25 1.25 6.25 -1 4 C-0.625 1.875 -0.625 1.875 0 0 Z " fill="#070C01" transform="translate(578,261)"/>
<path d="M0 0 C1.65 0 3.3 0 5 0 C4.979375 0.7425 4.95875 1.485 4.9375 2.25 C5.71291042 5.12149879 5.71291042 5.12149879 8.03515625 6.15234375 C9.66589451 6.83720213 11.31093596 7.48903473 12.96875 8.10546875 C15 9 15 9 16 11 C4.86138614 7.50990099 4.86138614 7.50990099 1 5 C0.125 2.3125 0.125 2.3125 0 0 Z " fill="#2C4507" transform="translate(573,261)"/>
<path d="M0 0 C0.33 0 0.66 0 1 0 C1.4006044 6.40967041 0.85317108 11.19175888 -2 17 C-3.9375 18.5625 -3.9375 18.5625 -6 19 C-8.25 18.625 -8.25 18.625 -10 18 C-9.2575 17.649375 -8.515 17.29875 -7.75 16.9375 C-3.68820166 14.07577844 -1.53916994 10.57004337 -0.53125 5.765625 C-0.28684842 3.85114599 -0.13510746 1.92528128 0 0 Z " fill="#2A4506" transform="translate(703,280)"/>
<path d="M0 0 C3.78520613 0.54074373 5.59177555 2.07572746 8 5 C8 5.99 8 6.98 8 8 C1.25 6.25 1.25 6.25 -1 4 C-0.625 1.875 -0.625 1.875 0 0 Z " fill="#080D01" transform="translate(685,261)"/>
<path d="M0 0 C3.09322404 0.3344026 4.58887768 0.5595118 6.75 2.875 C8 5 8 5 9 8 C2.25 6.25 2.25 6.25 0 4 C0 2.68 0 1.36 0 0 Z " fill="#070D01" transform="translate(54,261)"/>
<path d="M0 0 C1.44558008 2.77753377 2.65035413 5.54539908 3.6875 8.5 C3.95949219 9.2528125 4.23148437 10.005625 4.51171875 10.78125 C5.0519311 13.23597493 4.79774824 14.64423338 4 17 C2.93649337 15.11633147 1.89986771 13.2174671 0.875 11.3125 C0.00488281 9.72888672 0.00488281 9.72888672 -0.8828125 8.11328125 C-2 5 -2 5 -1.1796875 2.10546875 C-0.59574219 1.06326172 -0.59574219 1.06326172 0 0 Z " fill="#C1222D" transform="translate(320,115)"/>
<path d="M0 0 C3.14958831 3.42346555 3.56179109 6.44262737 4 11 C2.1875 10.8125 2.1875 10.8125 0 10 C-1.8125 7.5625 -1.8125 7.5625 -3 5 C-2.67 4.34 -2.34 3.68 -2 3 C-1.34 3.33 -0.68 3.66 0 4 C0 2.68 0 1.36 0 0 Z " fill="#480B10" transform="translate(601,71)"/>
<path d="M0 0 C4.43601966 3.51822249 5.52033129 7.75390186 7 13 C6.01 13.66 5.02 14.32 4 15 C3.32532438 13.25307205 2.66055844 11.50231475 2 9.75 C1.62875 8.77546875 1.2575 7.8009375 0.875 6.796875 C0 4 0 4 0 0 Z " fill="#B9212B" transform="translate(580,90)"/>
<path d="M0 0 C0.66 0.33 1.32 0.66 2 1 C0.88121617 2.17262904 -0.24523051 3.33795138 -1.375 4.5 C-2.00148438 5.1496875 -2.62796875 5.799375 -3.2734375 6.46875 C-5 8 -5 8 -7 8 C-6.67 12.62 -6.34 17.24 -6 22 C-6.66 21.67 -7.32 21.34 -8 21 C-9.22690583 8.71390135 -9.22690583 8.71390135 -6.21875 4.51171875 C-4.21982031 2.81192467 -2.25458572 1.33866027 0 0 Z " fill="#691117" transform="translate(569,249)"/>
<path d="M0 0 C2.41696872 -0.05411124 4.83271787 -0.09372278 7.25 -0.125 C7.93191406 -0.14175781 8.61382812 -0.15851563 9.31640625 -0.17578125 C13.02102829 -0.21174845 15.92975448 -0.21057677 19 2 C19.75 4.125 19.75 4.125 20 6 C15 4 15 4 12.8125 2.9375 C8.62957264 1.54319088 4.38002633 1.32318641 0 1 C0 0.67 0 0.34 0 0 Z " fill="#2A1B08" transform="translate(483,248)"/>
<path d="M0 0 C3.15623832 2.10415888 3.79088241 3.04404077 5.3125 6.375 C5.67988281 7.14585937 6.04726563 7.91671875 6.42578125 8.7109375 C7 11 7 11 6.10546875 13.2890625 C5.74066406 13.85367188 5.37585938 14.41828125 5 15 C0 5.38461538 0 5.38461538 0 0 Z " fill="#220507" transform="translate(292,121)"/>
<path d="M0 0 C1.66666667 1.66666667 3.33333333 3.33333333 5 5 C5.8971875 5.804375 5.8971875 5.804375 6.8125 6.625 C8 8 8 8 8 11 C6.35 10.67 4.7 10.34 3 10 C2.01 6.7 1.02 3.4 0 0 Z " fill="#0D3900" transform="translate(132,288)"/>
<path d="M0 0 C0.58265625 0.22300781 1.1653125 0.44601562 1.765625 0.67578125 C-0.60439913 3.29528161 -3.18891479 4.91262008 -6.234375 6.67578125 C-7.81710101 8.25850726 -7.58173247 10.05612128 -7.796875 12.23828125 C-7.88066406 13.06457031 -7.96445312 13.89085937 -8.05078125 14.7421875 C-8.11136719 15.38027344 -8.17195313 16.01835937 -8.234375 16.67578125 C-8.564375 16.67578125 -8.894375 16.67578125 -9.234375 16.67578125 C-9.79669006 12.23974024 -10.26717958 8.32030204 -7.81640625 4.41796875 C-3.18346052 -0.46193571 -3.18346052 -0.46193571 0 0 Z " fill="#364309" transform="translate(482.234375,261.32421875)"/>
<path d="M0 0 C1.32 0 2.64 0 4 0 C4 2.64 4 5.28 4 8 C2.68 8 1.36 8 0 8 C0 5.36 0 2.72 0 0 Z " fill="#1A4B02" transform="translate(781,279)"/>
<path d="M0 0 C7.29695685 -0.21253272 13.34617221 -0.32691389 20 3 C19.67 4.32 19.34 5.64 19 7 C18.236875 6.360625 17.47375 5.72125 16.6875 5.0625 C12.93307749 2.181199 9.91811776 1.81678617 5.3125 1.4375 C4.31863281 1.35371094 3.32476562 1.26992187 2.30078125 1.18359375 C1.16189453 1.09271484 1.16189453 1.09271484 0 1 C0 0.67 0 0.34 0 0 Z " fill="#363509" transform="translate(49,248)"/>
<path d="M0 0 C4.29 0 8.58 0 13 0 C10 3 10 3 6.5 3.375 C3 3 3 3 0 0 Z " fill="#090801" transform="translate(482,283)"/>
<path d="M0 0 C0.99 0 1.98 0 3 0 C3 3.3 3 6.6 3 10 C2.01 10 1.02 10 0 10 C0 6.7 0 3.4 0 0 Z " fill="#145301" transform="translate(304,287)"/>
<path d="M0 0 C1.485 0.99 1.485 0.99 3 2 C3 2.66 3 3.32 3 4 C2.34 4 1.68 4 1 4 C1 10.93 1 17.86 1 25 C0.67 25 0.34 25 0 25 C0 16.75 0 8.5 0 0 Z " fill="#205003" transform="translate(416,272)"/>
<path d="M0 0 C0 0.33 0 0.66 0 1 C-2.31 1 -4.62 1 -7 1 C-7.2475 1.5775 -7.495 2.155 -7.75 2.75 C-9.18299988 5.32939979 -10.78424676 7.06121592 -13 9 C-13.66 9 -14.32 9 -15 9 C-11.87289665 1.32438269 -7.82448066 -0.66309158 0 0 Z " fill="#440B0F" transform="translate(454,50)"/>
<path d="M0 0 C0.33 0 0.66 0 1 0 C1.36521739 5.47826087 1.36521739 5.47826087 -0.3125 7.875 C-2 9 -2 9 -5 9 C-3.75471468 5.55151758 -2.38532951 2.80016942 0 0 Z " fill="#2F4707" transform="translate(856,272)"/>
<path d="M0 0 C1.32 0 2.64 0 4 0 C4.66 1.65 5.32 3.3 6 5 C7.65 5 9.3 5 11 5 C11 5.33 11 5.66 11 6 C4.63636364 6.48951049 4.63636364 6.48951049 1.5625 4.125 C0 2 0 2 0 0 Z " fill="#223B05" transform="translate(570,282)"/>
<path d="M0 0 C0.66 0.33 1.32 0.66 2 1 C1.67 1.66 1.34 2.32 1 3 C0.77377919 4.70363822 0.59111527 6.41328701 0.4375 8.125 C0.31181641 9.49011719 0.31181641 9.49011719 0.18359375 10.8828125 C0.12300781 11.58148438 0.06242187 12.28015625 0 13 C-2.61509191 10.38490809 -2.65744789 8.48639521 -3.046875 4.91015625 C-3 3 -3 3 -1.5625 1 C-1.046875 0.67 -0.53125 0.34 0 0 Z " fill="#0D4700" transform="translate(478,265)"/>
<path d="M0 0 C0.66 0 1.32 0 2 0 C2.55978184 1.57701982 3.09719401 3.16199242 3.625 4.75 C3.92664063 5.63171875 4.22828125 6.5134375 4.5390625 7.421875 C5 10 5 10 3 14 C2.01 9.38 1.02 4.76 0 0 Z " fill="#B7202A" transform="translate(491,97)"/>
<path d="M0 0 C0.99 0.33 1.98 0.66 3 1 C3.6875 3.0625 3.6875 3.0625 4 5 C3.01 4.67 2.02 4.34 1 4 C1 8.29 1 12.58 1 17 C0.67 17 0.34 17 0 17 C0 11.39 0 5.78 0 0 Z " fill="#120A03" transform="translate(836,281)"/>
<path d="M0 0 C4.12751449 0.60698743 7.3321148 2.03810791 11 4 C11 4.33 11 4.66 11 5 C4.64948454 5.36637589 4.64948454 5.36637589 1.5625 3.625 C0 2 0 2 0 0 Z " fill="#273D06" transform="translate(47,283)"/>
<path d="M0 0 C4.62 0 9.24 0 14 0 C14 0.33 14 0.66 14 1 C13.21753906 1.04898438 12.43507813 1.09796875 11.62890625 1.1484375 C10.61699219 1.22320312 9.60507812 1.29796875 8.5625 1.375 C7.55316406 1.44460937 6.54382813 1.51421875 5.50390625 1.5859375 C4.26447266 1.79089844 4.26447266 1.79089844 3 2 C2.67 2.66 2.34 3.32 2 4 C1.34 3.67 0.68 3.34 0 3 C0 2.01 0 1.02 0 0 Z " fill="#400B0E" transform="translate(461,49)"/>
<path d="M0 0 C1.65 0 3.3 0 5 0 C5.33 1.98 5.66 3.96 6 6 C4.35 5.67 2.7 5.34 1 5 C0.67 3.35 0.34 1.7 0 0 Z " fill="#1F4904" transform="translate(680,261)"/>
<path d="M0 0 C1.90318884 2.85478326 2.4619099 4.41941308 3.125 7.6875 C3.29257812 8.49574219 3.46015625 9.30398437 3.6328125 10.13671875 C3.75398438 10.75160156 3.87515625 11.36648437 4 12 C1.44799404 9.51988153 -0.48761692 7.26356349 -2 4 C-1.1875 1.6875 -1.1875 1.6875 0 0 Z " fill="#B8212A" transform="translate(479,60)"/>
<path d="M0 0 C0.33 0 0.66 0 1 0 C1.55353075 11.52164009 1.55353075 11.52164009 -2 17 C-2.93423645 13.98968256 -3.04449911 13.13349732 -2 10 C-1.34 10 -0.68 10 0 10 C0 6.7 0 3.4 0 0 Z " fill="#0D4A00" transform="translate(514,271)"/>
<path d="M0 0 C1.32 0 2.64 0 4 0 C4.66 1.98 5.32 3.96 6 6 C4.35 5.67 2.7 5.34 1 5 C0.67 3.35 0.34 1.7 0 0 Z " fill="#1D4C03" transform="translate(50,261)"/>
<path d="M0 0 C1.32 0 2.64 0 4 0 C4 1.98 4 3.96 4 6 C2.68 6 1.36 6 0 6 C0 4.02 0 2.04 0 0 Z " fill="#164C01" transform="translate(781,261)"/>
<path d="M0 0 C0.99 0.33 1.98 0.66 3 1 C0.64531545 3.72647685 -1.5408417 4.98756342 -5 6 C-7.16015625 5.546875 -7.16015625 5.546875 -9 5 C-8.43410156 4.72285156 -7.86820312 4.44570313 -7.28515625 4.16015625 C-6.55167969 3.79792969 -5.81820313 3.43570312 -5.0625 3.0625 C-3.96615234 2.52302734 -3.96615234 2.52302734 -2.84765625 1.97265625 C-1.03750973 1.13628173 -1.03750973 1.13628173 0 0 Z " fill="#203B04" transform="translate(501,293)"/>
<path d="M0 0 C-0.625 1.875 -0.625 1.875 -2 4 C-5 5.3125 -5 5.3125 -8 6 C-8.66 5.67 -9.32 5.34 -10 5 C-8.71186658 4.16121545 -7.41936744 3.32913217 -6.125 2.5 C-5.40570313 2.0359375 -4.68640625 1.571875 -3.9453125 1.09375 C-2 0 -2 0 0 0 Z " fill="#254305" transform="translate(221,292)"/>
<path d="M0 0 C1.32 0.99 2.64 1.98 4 3 C3.67 3.66 3.34 4.32 3 5 C2.34 4.67 1.68 4.34 1 4 C0.67 7.63 0.34 11.26 0 15 C-0.33 15 -0.66 15 -1 15 C-1.02693575 12.87506859 -1.04636628 10.75004088 -1.0625 8.625 C-1.07410156 7.44164062 -1.08570312 6.25828125 -1.09765625 5.0390625 C-1 2 -1 2 0 0 Z " fill="#161004" transform="translate(109,283)"/>
<path d="M0 0 C1 2 1 2 0.375 4 C-1.44280454 6.64407933 -2.92463911 7.19454834 -6 8 C-8.1640625 7.54296875 -8.1640625 7.54296875 -10 7 C-9.16855469 6.61908203 -9.16855469 6.61908203 -8.3203125 6.23046875 C-7.59585938 5.88628906 -6.87140625 5.54210937 -6.125 5.1875 C-5.40570312 4.85105469 -4.68640625 4.51460938 -3.9453125 4.16796875 C-1.69457194 3.00532903 -1.69457194 3.00532903 0 0 Z " fill="#283B06" transform="translate(593,292)"/>
<path d="M0 0 C2.86724686 0.57344937 3.8614515 0.8614515 6 3 C8.57061311 3.64767793 8.57061311 3.64767793 11 4 C11 4.33 11 4.66 11 5 C4.64948454 5.36637589 4.64948454 5.36637589 1.5625 3.625 C0 2 0 2 0 0 Z " fill="#2F3F08" transform="translate(677,283)"/>
<path d="M0 0 C0.86625 0.804375 1.7325 1.60875 2.625 2.4375 C5.62876093 4.96924136 8.03203262 5.71657376 12 6 C12 6.33 12 6.66 12 7 C8.94928825 7.287803 6.03939738 7.4472872 3 7 C0.89638304 4.5776532 0 3.21754366 0 0 Z " fill="#2F3708" transform="translate(479,280)"/>
<path d="M0 0 C1.32 0.33 2.64 0.66 4 1 C4.66 3.31 5.32 5.62 6 8 C5.01 8.495 5.01 8.495 4 9 C0 2.25 0 2.25 0 0 Z " fill="#180305" transform="translate(611,99)"/>
<path d="M0 0 C0.99 0 1.98 0 3 0 C1.73058503 3.91402949 0.48832306 5.79072873 -3 8 C-2.45276317 4.62537285 -1.9451 2.91765 0 0 Z " fill="#114E00" transform="translate(133,249)"/>
<path d="M0 0 C0.309375 0.639375 0.61875 1.27875 0.9375 1.9375 C1.8345163 3.93610821 1.8345163 3.93610821 3 5 C3.04063832 6.66617115 3.042721 8.33388095 3 10 C0.27573689 7.64722731 -0.8141763 5.37503669 -2 2 C-1.34 1.34 -0.68 0.68 0 0 Z " fill="#31080B" transform="translate(610,90)"/>
<path d="M0 0 C3.16115776 1.36983503 3.9927092 1.9890638 6 5 C5.625 7.1875 5.625 7.1875 5 9 C4.16094435 7.87926138 3.32892169 6.75325453 2.5 5.625 C2.0359375 4.99851562 1.571875 4.37203125 1.09375 3.7265625 C0 2 0 2 0 0 Z " fill="#1B5102" transform="translate(128,286)"/>
<path d="M0 0 C1.32 0.66 2.64 1.32 4 2 C2.25 3.5625 2.25 3.5625 0 5 C-2.25 4.6875 -2.25 4.6875 -4 4 C-2.68 2.68 -1.36 1.36 0 0 Z " fill="#1D4104" transform="translate(503,260)"/>
<path d="M0 0 C1.88391785 3.26545761 2.49287967 6.28111761 3 10 C2.34 10 1.68 10 1 10 C-0.83691257 6.21812119 -1.15837626 4.05431692 0 0 Z " fill="#B9212B" transform="translate(412,117)"/>
<path d="M0 0 C1.27875 0.103125 2.5575 0.20625 3.875 0.3125 C4.95394531 0.39951172 4.95394531 0.39951172 6.0546875 0.48828125 C8 1 8 1 10 4 C9.01 4.33 8.02 4.66 7 5 C4.23760649 3.58511552 2.19636905 2.19636905 0 0 Z " fill="#244405" transform="translate(209,249)"/>
<path d="M0 0 C0.99 0.33 1.98 0.66 3 1 C4.1875 4.5625 4.1875 4.5625 5 8 C4.34 8.66 3.68 9.32 3 10 C2.01 6.7 1.02 3.4 0 0 Z " fill="#B8212B" transform="translate(423,153)"/>
<path d="M0 0 C0.66 0 1.32 0 2 0 C4.09230769 4.43076923 4.09230769 4.43076923 3.625 7.3125 C3.41875 7.869375 3.2125 8.42625 3 9 C0.70620251 5.55930376 0 4.27709699 0 0 Z " fill="#490C10" transform="translate(606,84)"/>
<path d="M0 0 C1.32 0 2.64 0 4 0 C3.34 1.65 2.68 3.3 2 5 C1.01 5 0.02 5 -1 5 C-0.67 3.35 -0.34 1.7 0 0 Z " fill="#213A05" transform="translate(630,260)"/>
<path d="M0 0 C0.99 0 1.98 0 3 0 C3 1.98 3 3.96 3 6 C2.01 6 1.02 6 0 6 C0 4.02 0 2.04 0 0 Z " fill="#155301" transform="translate(196,261)"/>
<path d="M0 0 C4 4.625 4 4.625 4 8 C2.68 7.67 1.36 7.34 0 7 C0 4.69 0 2.38 0 0 Z " fill="#0E4100" transform="translate(423,254)"/>
<path d="M0 0 C-1.45255699 3.82946843 -3.42895561 5.12050295 -7 7 C-3.86206897 0 -3.86206897 0 0 0 Z " fill="#731319" transform="translate(676,250)"/>
<path d="M0 0 C2.97 0.33 5.94 0.66 9 1 C9.33 2.32 9.66 3.64 10 5 C5 3 5 3 0 1 C0 0.67 0 0.34 0 0 Z " fill="#324008" transform="translate(493,249)"/>
<path d="M0 0 C1.65 0 3.3 0 5 0 C5.66 1.65 6.32 3.3 7 5 C4.0625 4.1875 4.0625 4.1875 1 3 C0.67 2.01 0.34 1.02 0 0 Z " fill="#154401" transform="translate(416,249)"/>
<path d="M0 0 C-4.625 3 -4.625 3 -8 3 C-8 2.34 -8 1.68 -8 1 C-4.93251126 -0.86240388 -3.40254489 -1.2151946 0 0 Z " fill="#244505" transform="translate(73,261)"/>
<path d="M0 0 C2.12508244 3.18762365 2.5020163 5.26512223 3 9 C0 7 0 7 -0.75 5.0625 C-1 3 -1 3 0 0 Z " fill="#AD1E27" transform="translate(325,129)"/>
<path d="M0 0 C0.66 0 1.32 0 2 0 C2.66 1.98 3.32 3.96 4 6 C3.01 6.66 2.02 7.32 1 8 C0.67 5.36 0.34 2.72 0 0 Z " fill="#2F070A" transform="translate(295,128)"/>
</svg>
